<?xml version="1.0" standalone="no"?>
<!DOCTYPE svg PUBLIC "-//W3C//DTD SVG 20010904//EN"
 "http://www.w3.org/TR/2001/REC-SVG-20010904/DTD/svg10.dtd">
<svg version="1.0" xmlns="http://www.w3.org/2000/svg"
 width="512.000000pt" height="512.000000pt" viewBox="0 0 512.000000 512.000000"
 preserveAspectRatio="xMidYMid meet">

<g transform="translate(0.000000,512.000000) scale(0.100000,-0.100000)"
fill="#000000" stroke="none">
<path d="M0 4011 c0 -908 2 -1111 13 -1120 10 -8 17 -7 25 1 13 13 46 3 37
-12 -4 -6 5 -10 19 -10 16 0 26 6 26 15 0 8 5 15 11 15 6 0 9 -7 5 -15 -3 -8
-1 -15 4 -15 15 0 12 -28 -3 -33 -6 -2 -9 -8 -5 -12 8 -9 38 12 38 27 0 14 21
31 53 46 15 6 25 17 22 22 -3 6 3 10 14 10 12 0 21 6 21 14 0 8 5 18 12 22 7
4 8 3 4 -4 -4 -7 -2 -12 3 -12 6 0 11 7 11 16 0 8 5 12 11 9 6 -4 7 -19 4 -37
-6 -23 -4 -29 6 -23 9 6 11 3 6 -9 -4 -10 -7 -20 -7 -23 0 -3 -7 0 -15 7 -9 7
-18 10 -21 7 -10 -10 6 -27 26 -27 10 0 22 -4 25 -10 3 -5 1 -10 -5 -10 -6 0
-8 -4 -5 -10 3 -5 -1 -10 -9 -10 -9 0 -16 6 -16 13 0 8 -3 8 -9 -2 -11 -16 16
-64 30 -55 5 3 9 1 9 -4 0 -6 -7 -13 -16 -16 -8 -3 -13 -10 -10 -15 10 -15
-58 -20 -75 -5 -19 17 -38 19 -21 2 17 -17 15 -29 -3 -22 -10 4 -15 0 -15 -15
0 -12 -5 -21 -11 -21 -5 0 -8 -4 -5 -9 3 -5 -6 -12 -21 -16 -21 -5 -31 -1 -45
17 l-18 23 0 -26 0 -27 -44 16 c-51 19 -63 14 -44 -17 10 -16 10 -23 0 -33 -8
-8 -12 -55 -12 -153 l0 -141 31 -27 c30 -26 32 -47 3 -47 -8 0 -14 -5 -14 -11
0 -5 -4 -7 -10 -4 -14 9 -12 -29 2 -43 9 -9 9 -15 0 -24 -9 -9 -12 -265 -12
-1090 l0 -1078 2560 0 2560 0 0 2560 0 2560 -2560 0 -2560 0 0 -1109z m235
-951 c3 -5 1 -10 -4 -10 -6 0 -11 5 -11 10 0 6 2 10 4 10 3 0 8 -4 11 -10z
m-95 -85 c0 -8 -4 -15 -9 -15 -13 0 -22 16 -14 24 11 11 23 6 23 -9z m266
-171 c-4 -9 -9 -15 -11 -12 -3 3 -3 13 1 22 4 9 9 15 11 12 3 -3 3 -13 -1 -22z"/>
</g>
</svg>
